<svg xmlns="http://www.w3.org/2000/svg" viewBox="0 0 1000 700">
  <!-- Title -->
  <text x="500" y="40" text-anchor="middle" font-size="28" font-weight="bold" fill="#333">{{TITLE}}</text>
  <text x="500" y="70" text-anchor="middle" font-size="16" fill="#888">{{SUBTITLE}}</text>
  
  <!-- PROS Header -->
  <rect x="50" y="120" width="150" height="50" rx="25" fill="#f8f9fa" stroke="#ddd" stroke-width="1"/>
  <text x="125" y="150" text-anchor="middle" font-size="18" font-weight="bold" fill="#333">PROS</text>
  
  <!-- CONS Header -->
  <rect x="800" y="120" width="150" height="50" rx="25" fill="#f8f9fa" stroke="#ddd" stroke-width="1"/>
  <text x="875" y="150" text-anchor="middle" font-size="18" font-weight="bold" fill="#ffa500">CONS</text>
  
  <!-- PROS Section -->
  <g transform="translate(50, 200)">
    <!-- Pro 1 -->
    <g>
      <text x="0" y="0" font-size="16" font-weight="bold" fill="#333">{{PRO_1_TITLE}}</text>
      <text x="0" y="20" font-size="12" fill="#666">{{PRO_1_DESC}}</text>
      <circle cx="380" cy="-5" r="12" fill="#28a745"/>
      <path d="M375,-5 l4,4 l8,-8" fill="none" stroke="white" stroke-width="2"/>
    </g>
    
    <!-- Pro 2 -->
    <g transform="translate(0, 60)">
      <text x="0" y="0" font-size="16" font-weight="bold" fill="#333">{{PRO_2_TITLE}}</text>
      <text x="0" y="20" font-size="12" fill="#666">{{PRO_2_DESC}}</text>
      <circle cx="380" cy="-5" r="12" fill="#28a745"/>
      <path d="M375,-5 l4,4 l8,-8" fill="none" stroke="white" stroke-width="2"/>
    </g>
    
    <!-- Pro 3 -->
    <g transform="translate(0, 120)">
      <text x="0" y="0" font-size="16" font-weight="bold" fill="#333">{{PRO_3_TITLE}}</text>
      <text x="0" y="20" font-size="12" fill="#666">{{PRO_3_DESC}}</text>
      <circle cx="380" cy="-5" r="12" fill="#28a745"/>
      <path d="M375,-5 l4,4 l8,-8" fill="none" stroke="white" stroke-width="2"/>
    </g>
    
    <!-- Pro 4 -->
    <g transform="translate(0, 180)">
      <text x="0" y="0" font-size="16" font-weight="bold" fill="#333">{{PRO_4_TITLE}}</text>
      <text x="0" y="20" font-size="12" fill="#666">{{PRO_4_DESC}}</text>
      <circle cx="380" cy="-5" r="12" fill="#28a745"/>
      <path d="M375,-5 l4,4 l8,-8" fill="none" stroke="white" stroke-width="2"/>
    </g>
    
    <!-- Pro 5 -->
    <g transform="translate(0, 240)">
      <text x="0" y="0" font-size="16" font-weight="bold" fill="#333">{{PRO_5_TITLE}}</text>
      <text x="0" y="20" font-size="12" fill="#666">{{PRO_5_DESC}}</text>
      <circle cx="380" cy="-5" r="12" fill="#28a745"/>
      <path d="M375,-5 l4,4 l8,-8" fill="none" stroke="white" stroke-width="2"/>
    </g>
  </g>
  
  <!-- CONS Section -->
  <g transform="translate(550, 200)">
    <!-- Con 1 -->
    <g>
      <text x="0" y="0" font-size="16" font-weight="bold" fill="#333">{{CON_1_TITLE}}</text>
      <text x="0" y="20" font-size="12" fill="#666">{{CON_1_DESC}}</text>
      <circle cx="380" cy="-5" r="12" fill="#dc3545"/>
      <path d="M375,-10 l10,10 M375,0 l10,-10" stroke="white" stroke-width="2"/>
    </g>
    
    <!-- Con 2 -->
    <g transform="translate(0, 60)">
      <text x="0" y="0" font-size="16" font-weight="bold" fill="#333">{{CON_2_TITLE}}</text>
      <text x="0" y="20" font-size="12" fill="#666">{{CON_2_DESC}}</text>
      <circle cx="380" cy="-5" r="12" fill="#dc3545"/>
      <path d="M375,-10 l10,10 M375,0 l10,-10" stroke="white" stroke-width="2"/>
    </g>
    
    <!-- Con 3 -->
    <g transform="translate(0, 120)">
      <text x="0" y="0" font-size="16" font-weight="bold" fill="#333">{{CON_3_TITLE}}</text>
      <text x="0" y="20" font-size="12" fill="#666">{{CON_3_DESC}}</text>
      <circle cx="380" cy="-5" r="12" fill="#dc3545"/>
      <path d="M375,-10 l10,10 M375,0 l10,-10" stroke="white" stroke-width="2"/>
    </g>
    
    <!-- Con 4 -->
    <g transform="translate(0, 180)">
      <text x="0" y="0" font-size="16" font-weight="bold" fill="#333">{{CON_4_TITLE}}</text>
      <text x="0" y="20" font-size="12" fill="#666">{{CON_4_DESC}}</text>
      <circle cx="380" cy="-5" r="12" fill="#dc3545"/>
      <path d="M375,-10 l10,10 M375,0 l10,-10" stroke="white" stroke-width="2"/>
    </g>
    
    <!-- Con 5 -->
    <g transform="translate(0, 240)">
      <text x="0" y="0" font-size="16" font-weight="bold" fill="#333">{{CON_5_TITLE}}</text>
      <text x="0" y="20" font-size="12" fill="#666">{{CON_5_DESC}}</text>
      <circle cx="380" cy="-5" r="12" fill="#dc3545"/>
      <path d="M375,-10 l10,10 M375,0 l10,-10" stroke="white" stroke-width="2"/>
    </g>
  </g>
</svg>